<?xml version="1.0" encoding="utf-8"?>
<!-- Generator: Adobe Illustrator 24.0.1, SVG Export Plug-In . SVG Version: 6.00 Build 0)  -->
<svg version="1.1" xmlns="http://www.w3.org/2000/svg" xmlns:xlink="http://www.w3.org/1999/xlink" x="0px" y="0px"
	 viewBox="0 0 465.2 488.9" style="enable-background:new 0 0 465.2 488.9;" xml:space="preserve">
<style type="text/css">
	.st0{display:none;}
	.st1{display:inline;fill:#1C1A1A;stroke:#000000;stroke-miterlimit:10;}
	.st2{fill:none;stroke:#FFFFFF;stroke-width:15;stroke-linecap:round;stroke-linejoin:round;}
	.st3{fill:none;stroke:#FFFFFF;stroke-width:15;}
	.st4{fill:none;stroke:#FFFFFF;stroke-width:15;stroke-linecap:round;}
	.st5{fill:#FFFFFF;}
	.st6{opacity:0.46;}
	.st7{opacity:0.4;}
</style>
<g id="Layer_2" class="st0">
	<rect class="st1" width="465.2" height="488.9"/>
</g>
<g id="Layer_1">
	<g id="Group_8" transform="translate(-217.329 -363.035)">
		<g id="Group_2" transform="translate(-363.88 292.408) rotate(-21)">
			<path id="Rectangle_1" class="st2" d="M658.2,382.8l173.8,27.5c14.2,2.2,23.9,15.6,21.6,29.7l-58.2,367.4
				c-2.2,14.2-15.6,23.9-29.7,21.6l-173.8-27.5c-14.2-2.2-23.9-15.6-21.6-29.7l58.2-367.4C630.7,390.3,644.1,380.6,658.2,382.8z"/>
			<line id="Line_1" class="st3" x1="576.5" y1="749.1" x2="797.6" y2="784.1"/>
			<line id="Line_2" class="st3" x1="628.9" y1="418.2" x2="850" y2="453.2"/>
			<line id="Line_3" class="st4" x1="652.5" y1="786.4" x2="717.7" y2="796.7"/>
		</g>
		<g id="Group_3" transform="translate(-97.343 -63.608) rotate(9)">
			<path id="Path_1" class="st2" d="M430.5,482.4l31.6,0l41.5,84l42.2,85.5l170.4-2.4l41.6-134l-232.1,1"/>
			<circle id="Ellipse_1" class="st5" cx="587" cy="690" r="21"/>
			<circle id="Ellipse_2" class="st5" cx="673" cy="690" r="21"/>
			<g id="Component_1_1" transform="translate(517.633 499.633)">
				<g id="Group_1" transform="translate(90.156 -702.157) rotate(45)">
					<line id="Line_4" class="st4" x1="444.5" y1="548.5" x2="444.5" y2="571.5"/>
					<line id="Line_5" class="st4" x1="468" y1="572" x2="445" y2="572"/>
				</g>
			</g>
			<line class="st4" x1="552.6" y1="556.2" x2="486.4" y2="647.3"/>
		</g>
		<g id="Group_7" transform="translate(94 45)" class="st6">
			<path id="Intersection_2" class="st5" d="M319.5,637.3l-27.3-140.5L473,524.6l-62.1,125.8L319.5,637.3z"/>
			<g id="Group_5" transform="translate(-457.88 256.408) rotate(-21)" class="st7">
				<path id="Rectangle_1-2" class="st2" d="M658.2,382.8l173.8,27.5c14.2,2.2,23.9,15.6,21.6,29.7l-58.2,367.4
					c-2.2,14.2-15.6,23.9-29.7,21.6l-173.8-27.5c-14.2-2.2-23.9-15.6-21.6-29.7l58.2-367.4C630.7,390.3,644.1,380.6,658.2,382.8z"/>
				<line id="Line_1-2" class="st3" x1="576.5" y1="749.1" x2="797.6" y2="784.1"/>
				<line id="Line_2-2" class="st3" x1="628.9" y1="418.2" x2="850" y2="453.2"/>
				<line id="Line_3-2" class="st4" x1="652.5" y1="786.4" x2="717.7" y2="796.7"/>
			</g>
			<g id="Group_6" transform="translate(-191.343 -99.608) rotate(9)" class="st7">
				<path id="Path_1-2" class="st2" d="M430.5,482.4l31.6,0l41.5,84l42.2,85.5l170.4-2.4l41.6-134l-232.1,1"/>
				<circle id="Ellipse_1-2" class="st5" cx="587" cy="690" r="21"/>
				<circle id="Ellipse_2-2" class="st5" cx="673" cy="690" r="21"/>
				<g id="Group_1-2" transform="translate(607.789 -202.524) rotate(45)">
					<line id="Line_4-2" class="st4" x1="444.5" y1="548.5" x2="444.5" y2="571.5"/>
					<line id="Line_5-2" class="st4" x1="468" y1="572" x2="445" y2="572"/>
				</g>
			</g>
		</g>
	</g>
</g>
</svg>
